<svg data-v-fde0c5aa="" xmlns="http://www.w3.org/2000/svg" viewBox="0 0 300 300" class="iconLeft"><!----><defs data-v-fde0c5aa=""><!----></defs><rect data-v-fde0c5aa="" fill="transparent" x="0" y="0" width="300px" height="300px" class="logo-background-square"></rect><defs data-v-fde0c5aa=""><!----></defs><g data-v-fde0c5aa="" id="7f40fcf6-3750-484e-8dff-924e86a67878" fill="#000000" transform="matrix(3.085535879849911,0,0,3.085535879849911,99.27443223738187,124.08149831500111)"><path d="M6.27 3.99C5.75 3.93 5.36 3.92 4.76 3.92L1.12 3.92L1.12 13.58L3.64 13.58L3.64 10.19L4.76 10.19C5.36 10.19 5.75 10.18 6.27 10.12C7.67 9.95 8.95 8.96 8.95 7.06C8.95 5.15 7.67 4.16 6.27 3.99ZM5.29 8.22C5.11 8.23 4.89 8.23 4.62 8.23L3.64 8.23L3.64 5.88L4.62 5.88C4.89 5.88 5.11 5.88 5.29 5.89C5.94 5.95 6.31 6.33 6.31 7.06C6.31 7.78 5.94 8.16 5.29 8.22ZM17.09 9.74C17.09 7.81 15.83 5.91 13.34 5.91C10.85 5.91 9.35 7.69 9.35 9.87C9.35 12.50 11.06 13.78 13.20 13.78C15.12 13.78 16.52 12.82 16.95 11.13L14.48 11.13C14.38 11.70 13.94 12.07 13.23 12.07C12.52 12.07 11.97 11.72 11.84 10.47L17.05 10.47C17.08 10.22 17.09 9.97 17.09 9.74ZM13.22 7.62C13.89 7.62 14.32 8.05 14.46 8.93L11.93 8.93C12.10 8.01 12.56 7.62 13.22 7.62ZM21.21 7.73L22.86 7.73L22.86 6.16L21.21 6.16L21.21 4.23L18.69 4.23L18.69 6.16L17.50 6.16L17.50 7.73L18.69 7.73L18.69 10.85C18.69 11.27 18.69 11.62 18.72 12.05C18.80 13.20 19.36 13.78 21.22 13.78C21.76 13.78 22.22 13.73 22.71 13.65L22.71 12.08C21.52 12.14 21.28 11.97 21.22 11.21C21.21 11.02 21.21 10.74 21.21 10.49ZM26.87 5.91C24.88 5.91 23.59 6.83 23.59 8.32C23.59 9.59 24.44 10.25 25.87 10.58C27.20 10.89 27.68 11.16 27.68 11.63C27.68 12.03 27.33 12.21 26.88 12.21C26.35 12.21 25.90 11.83 25.76 11.26L23.28 11.26C23.48 12.94 24.86 13.78 26.89 13.78C28.70 13.78 30.20 13.03 30.20 11.44C30.20 10.00 29.23 9.41 27.87 9.07C26.45 8.72 26.11 8.44 26.11 8.02C26.11 7.70 26.36 7.48 26.71 7.48C27.16 7.48 27.41 7.77 27.52 8.29L30.00 8.29C29.81 6.93 28.73 5.91 26.87 5.91ZM33.64 3.29L31.12 3.29L31.12 10.93C31.12 11.49 31.12 11.87 31.15 12.26C31.21 13.26 31.86 13.72 33.03 13.72C33.59 13.72 34.03 13.69 34.50 13.65L34.50 11.94C33.84 11.97 33.71 11.87 33.67 11.58C33.64 11.40 33.64 11.24 33.64 10.89ZM36.71 3.07C35.92 3.07 35.41 3.54 35.41 4.30C35.41 5.05 35.92 5.53 36.71 5.53C37.49 5.53 38.01 5.05 38.01 4.30C38.01 3.54 37.49 3.07 36.71 3.07ZM37.97 13.58L37.97 6.10L35.45 6.10L35.45 13.58ZM42.32 5.54C42.39 4.89 43.05 4.62 43.96 4.77L43.96 3.14C43.71 3.07 43.41 3.02 43.12 3.02C40.81 3.02 39.91 3.89 39.80 5.29C39.79 5.54 39.79 5.88 39.79 6.10L39.79 6.16L38.99 6.16L38.99 7.73L39.79 7.73L39.79 13.58L42.31 13.58L42.31 7.73L43.83 7.73L43.83 6.16L42.31 6.16L42.31 6.10C42.31 5.92 42.31 5.74 42.32 5.54ZM52.09 9.74C52.09 7.81 50.83 5.91 48.34 5.91C45.85 5.91 44.35 7.69 44.35 9.87C44.35 12.50 46.06 13.78 48.20 13.78C50.12 13.78 51.52 12.82 51.95 11.13L49.48 11.13C49.38 11.70 48.94 12.07 48.23 12.07C47.52 12.07 46.97 11.72 46.84 10.47L52.05 10.47C52.08 10.22 52.09 9.97 52.09 9.74ZM48.22 7.62C48.89 7.62 49.32 8.05 49.46 8.93L46.93 8.93C47.10 8.01 47.56 7.62 48.22 7.62Z"></path></g><defs data-v-fde0c5aa=""><!----></defs><g data-v-fde0c5aa="" id="41340b49-e5f9-431a-a128-a8a01a1b7397" stroke="none" fill="#08B339" transform="matrix(0.7521368153031803,0,0,0.7521368153031803,27.25755672545405,112.39314488896972)"><path d="M66.02 31.768c-3.621 4.801-9.457 6.616-13.059 4.025-3.564-2.571-3.537-8.547.115-13.367 3.615-4.807 9.453-6.63 13.018-4.039 3.601 2.58 3.564 8.554-.074 13.381zM45.86 31.453c-3.62 4.797-9.465 6.611-13.058 4.031-3.574-2.563-3.537-8.552.102-13.372 3.634-4.802 9.456-6.63 13.044-4.04 3.583 2.581 3.546 8.561-.088 13.381zM68.236 33.979c-4.793 3.62-6.604 9.466-4.027 13.049 2.559 3.574 8.551 3.546 13.354-.102 4.83-3.625 6.631-9.457 4.063-13.03-2.605-3.583-8.579-3.546-13.39.083zM68.512 54.184c-4.801 3.625-6.611 9.479-4.025 13.063 2.559 3.564 8.533 3.537 13.354-.11 4.82-3.62 6.621-9.471 4.045-13.035-2.577-3.584-8.562-3.557-13.374.082zM60.645 62.537c-2.383-7.093.352-13.778-4.543-18.668-4.908-4.918-11.562-2.166-18.673-4.566-11.123-3.764-23.88 5.23-19.661 16.114 3.468 8.967 8.547 6.953 14.203 12.596 5.624 5.624 3.62 10.813 12.568 14.268 10.897 4.229 19.893-8.626 16.106-19.744z"></path></g><!----></svg>